<svg width="110" height="94" viewBox="0 0 110 94" fill="none" xmlns="http://www.w3.org/2000/svg">
<path fill-rule="evenodd" clip-rule="evenodd" d="M38.291 85.5795C22.1045 73.177 0 52.6895 0 33.3185C0 0.95649 30.25 -11.127 55 13.865C79.75 -11.127 110 0.956487 110 33.313C110 52.6895 87.89 73.177 71.709 85.5795C64.383 91.1895 60.72 94 55 94C49.28 94 45.617 91.195 38.291 85.5795ZM79.75 18.375C80.844 18.375 81.8932 18.8096 82.6668 19.5832C83.4404 20.3568 83.875 21.406 83.875 22.5V29.375H90.75C91.844 29.375 92.8932 29.8096 93.6668 30.5832C94.4404 31.3568 94.875 32.406 94.875 33.5C94.875 34.594 94.4404 35.6432 93.6668 36.4168C92.8932 37.1904 91.844 37.625 90.75 37.625H83.875V44.5C83.875 45.594 83.4404 46.6432 82.6668 47.4168C81.8932 48.1904 80.844 48.625 79.75 48.625C78.656 48.625 77.6068 48.1904 76.8332 47.4168C76.0596 46.6432 75.625 45.594 75.625 44.5V37.625H68.75C67.656 37.625 66.6068 37.1904 65.8332 36.4168C65.0596 35.6432 64.625 34.594 64.625 33.5C64.625 32.406 65.0596 31.3568 65.8332 30.5832C66.6068 29.8096 67.656 29.375 68.75 29.375H75.625V22.5C75.625 21.406 76.0596 20.3568 76.8332 19.5832C77.6068 18.8096 78.656 18.375 79.75 18.375Z" fill="#457B9D"/>
</svg>
